<?xml version="1.0" standalone="no"?>
<!DOCTYPE svg PUBLIC "-//W3C//DTD SVG 20010904//EN"
 "http://www.w3.org/TR/2001/REC-SVG-20010904/DTD/svg10.dtd">
<svg version="1.0" xmlns="http://www.w3.org/2000/svg"
 width="1000.000000pt" height="702.000000pt" viewBox="0 0 1000.000000 702.000000"
 preserveAspectRatio="xMidYMid meet">

<g transform="translate(0.000000,702.000000) scale(0.100000,-0.100000)"
fill="#000000" stroke="none">
<path d="M4960 5690 l0 -120 -120 0 -120 0 0 -35 0 -35 120 0 120 0 0 -242 0
-243 -269 -464 -268 -464 -54 -1 c-48 -1 -54 -3 -57 -23 l-3 -23 399 0 c219 0
528 3 685 7 274 6 287 7 287 25 0 17 -6 19 -50 17 -28 -2 -54 1 -60 7 -5 5
-128 216 -274 469 l-266 459 0 238 0 238 120 0 120 0 0 35 0 35 -120 0 -120 0
0 120 0 120 -35 0 -35 0 0 -120z"/>
<path d="M4440 2620 l0 -1390 150 0 149 0 3 413 c3 457 1 439 72 510 53 54
101 72 186 72 64 0 82 -4 122 -27 25 -16 60 -45 78 -65 57 -70 60 -97 60 -520
l0 -383 150 0 150 0 0 1390 0 1390 -560 0 -560 0 0 -1390z m620 1143 c33 -27
74 -86 90 -128 l9 -24 -164 0 -165 0 16 32 c71 137 145 179 214 120z m-70
-221 c0 -36 -5 -50 -20 -60 -27 -16 -59 -82 -70 -144 -6 -29 -19 -62 -30 -73
-18 -19 -19 -24 -6 -34 8 -7 33 -15 55 -18 23 -3 46 -12 52 -19 15 -18 45 -18
52 0 3 7 26 16 52 18 63 8 73 20 46 54 -11 15 -21 37 -21 49 0 46 -35 129 -67
161 -26 27 -33 41 -33 74 l0 40 85 0 c99 0 89 11 131 -145 28 -104 50 -248 60
-387 l7 -98 -283 0 -283 0 6 128 c7 132 38 306 77 430 l23 72 83 0 84 0 0 -48z"/>
<path d="M4165 3167 c-121 -67 -372 -205 -557 -307 l-338 -185 0 -81 0 -82
563 309 562 308 3 81 c2 44 -1 80 -5 80 -4 -1 -107 -56 -228 -123z"/>
<path d="M5590 3203 l0 -89 557 -310 c306 -170 562 -310 569 -312 10 -2 12 20
11 89 l-2 93 -165 91 c-483 266 -937 515 -953 520 -15 6 -17 -1 -17 -82z"/>
<path d="M3835 2781 l-560 -308 -3 -336 c-1 -186 -6 -337 -10 -337 -5 0 -23
16 -42 35 -38 40 -46 42 -71 19 -17 -16 -21 -15 -51 9 -111 88 -115 94 -146
216 -17 62 -36 117 -43 122 -26 16 -58 9 -74 -15 -15 -23 -15 -30 5 -103 54
-196 45 -178 131 -250 43 -36 79 -74 79 -83 0 -8 19 -35 43 -58 l42 -42 59 66
c43 49 61 62 67 52 5 -7 9 -131 9 -275 l0 -263 565 0 565 0 0 930 c0 512 -1
930 -2 930 -2 -1 -255 -140 -563 -309z m123 -311 c70 -65 102 -260 102 -622
l0 -188 -151 0 -151 0 5 278 c6 274 11 333 41 437 29 99 101 144 154 95z
m-767 -683 c-7 -7 -7 -15 2 -25 10 -13 8 -14 -9 -8 -14 4 -26 1 -34 -9 -7 -8
-17 -15 -23 -15 -6 0 -1 10 11 23 15 16 19 26 12 33 -7 7 -1 11 20 11 21 0 27
-4 21 -10z"/>
<path d="M5590 2151 l0 -921 568 2 567 3 2 270 c1 148 6 271 11 273 9 3 74
-64 105 -108 l17 -24 45 44 c25 25 43 50 41 57 -3 6 33 44 79 83 70 59 86 78
95 113 7 23 23 82 36 131 23 81 24 90 9 112 -17 27 -56 32 -78 10 -7 -8 -27
-64 -42 -124 -28 -110 -28 -111 -84 -159 -94 -81 -89 -78 -109 -59 -26 23 -33
21 -77 -24 -21 -22 -42 -40 -45 -40 -3 0 -5 147 -5 326 l0 326 -485 270 c-267
148 -522 290 -567 315 l-83 45 0 -921z m610 311 c61 -61 85 -206 96 -574 l7
-228 -158 0 -158 0 6 248 c7 268 17 368 47 463 35 112 101 150 160 91z m650
-676 c-7 -7 -3 -17 12 -33 12 -13 17 -23 11 -23 -6 0 -16 7 -23 15 -7 9 -21
13 -30 10 -14 -4 -18 0 -16 18 1 19 7 24 29 24 19 0 24 -4 17 -11z"/>
<path d="M914 2486 c-121 -53 -86 -236 46 -236 70 0 120 53 120 128 0 47 -29
88 -76 108 -41 17 -50 17 -90 0z"/>
<path d="M1555 2486 c-44 -20 -66 -49 -72 -97 -20 -146 189 -194 235 -54 33
99 -69 194 -163 151z"/>
<path d="M2193 2486 c-78 -35 -95 -139 -34 -200 28 -27 38 -31 87 -31 50 0 59
3 84 32 38 42 47 91 25 136 -29 62 -101 90 -162 63z"/>
<path d="M2830 2482 c-38 -20 -70 -72 -70 -113 0 -32 38 -89 70 -107 14 -7 44
-11 69 -9 124 13 150 185 36 233 -45 18 -63 18 -105 -4z"/>
<path d="M7063 2486 c-75 -34 -95 -137 -37 -197 49 -51 124 -51 175 0 94 94
-16 251 -138 197z"/>
<path d="M7703 2485 c-66 -28 -91 -115 -51 -175 47 -70 125 -81 184 -27 68 62
51 168 -31 203 -42 17 -61 17 -102 -1z"/>
<path d="M8363 2493 c-34 -7 -80 -58 -87 -97 -14 -75 48 -146 128 -146 31 0
45 7 77 39 32 32 39 46 39 77 0 51 -32 102 -75 120 -35 14 -42 15 -82 7z"/>
<path d="M8994 2486 c-48 -21 -74 -61 -74 -115 0 -53 18 -84 60 -106 60 -31
137 -10 165 45 35 69 8 147 -61 176 -41 17 -50 17 -90 0z"/>
<path d="M909 2225 c-56 -30 -103 -204 -104 -380 0 -133 13 -167 80 -196 46
-20 68 -45 105 -119 32 -63 40 -94 49 -189 6 -64 13 -88 27 -98 26 -19 51 -16
75 8 19 19 21 29 15 92 -12 127 -43 220 -109 317 -33 49 -35 55 -29 113 5 60
5 61 -31 91 -33 28 -39 43 -72 163 -39 144 -37 175 10 193 36 14 73 -4 90 -42
11 -26 14 -29 15 -11 0 24 -52 73 -78 73 -9 -1 -29 -7 -43 -15z"/>
<path d="M1553 2228 c-59 -28 -124 -285 -110 -435 8 -80 30 -118 85 -145 80
-38 135 -144 154 -298 15 -115 49 -149 98 -100 51 51 -6 300 -96 417 -20 27
-24 43 -24 102 0 67 -1 71 -34 98 -30 25 -38 42 -69 162 -39 144 -37 168 9
190 38 17 94 -13 94 -51 0 -10 4 -18 9 -18 20 0 -12 61 -40 75 -32 17 -46 18
-76 3z"/>
<path d="M2192 2224 c-49 -34 -84 -141 -102 -309 -15 -138 -3 -201 46 -244 19
-17 41 -31 48 -31 19 0 62 -52 92 -113 28 -55 54 -160 54 -223 0 -65 41 -91
89 -57 23 15 24 20 18 102 -8 123 -52 243 -119 330 -13 17 -18 41 -18 89 0 62
-2 69 -34 102 -29 29 -40 54 -65 150 -17 63 -31 127 -31 142 0 35 45 71 78 63
15 -4 21 -2 17 5 -9 15 -47 12 -73 -6z"/>
<path d="M2831 2224 c-53 -37 -101 -216 -104 -382 -1 -104 17 -154 64 -180 60
-32 96 -71 127 -140 34 -73 52 -149 52 -218 0 -33 5 -46 22 -58 52 -37 88 -6
88 76 0 113 -34 225 -100 327 -36 55 -40 68 -40 123 0 57 -3 65 -34 98 -27 29
-39 56 -65 153 -18 65 -31 130 -29 144 2 14 15 35 30 46 23 17 31 18 57 8 18
-8 36 -27 46 -49 14 -34 15 -35 10 -7 -7 36 -48 75 -78 75 -13 0 -33 -7 -46
-16z"/>
<path d="M7069 2211 c-16 -16 -29 -40 -28 -53 0 -19 3 -16 15 13 19 46 55 64
91 47 50 -25 51 -37 14 -181 -29 -115 -38 -137 -69 -169 -33 -35 -35 -41 -33
-97 2 -53 -1 -66 -29 -106 -69 -100 -110 -226 -110 -336 0 -51 4 -70 18 -82
23 -21 41 -21 68 -2 17 11 22 28 27 92 10 144 71 267 154 312 67 36 85 77 84
187 0 106 -26 251 -57 320 -38 87 -92 107 -145 55z"/>
<path d="M7735 2230 c-4 -7 2 -9 17 -5 32 8 78 -28 78 -61 0 -14 -14 -78 -31
-142 -26 -97 -37 -123 -65 -152 -31 -33 -34 -41 -34 -99 0 -56 -4 -70 -35
-117 -67 -101 -105 -219 -105 -331 0 -56 3 -64 26 -80 24 -15 29 -15 53 -2 23
13 27 23 32 84 9 92 24 148 62 218 30 57 77 107 101 107 27 0 66 56 76 110 25
133 -37 419 -101 464 -26 18 -65 21 -74 6z"/>
<path d="M8369 2225 c-24 -13 -56 -72 -45 -82 2 -3 9 11 15 30 15 44 57 65 93
46 48 -25 49 -48 6 -205 -27 -101 -36 -122 -65 -147 -31 -28 -33 -32 -33 -99
0 -58 -4 -75 -24 -101 -64 -86 -116 -241 -116 -348 0 -48 4 -60 22 -73 55 -39
79 -12 94 103 20 154 76 261 157 300 66 32 82 71 81 191 -2 173 -45 336 -101
379 -30 24 -48 26 -84 6z"/>
<path d="M9001 2214 c-18 -14 -31 -35 -31 -47 1 -18 4 -15 15 11 17 38 54 56
90 42 47 -18 48 -48 9 -193 -32 -118 -40 -135 -71 -162 -33 -29 -34 -32 -32
-96 2 -57 -1 -71 -23 -100 -63 -84 -104 -198 -114 -319 -6 -70 -5 -79 15 -99
25 -25 54 -27 75 -5 9 8 16 16 16 17 1 1 3 31 6 67 11 146 74 276 155 317 71
37 84 68 83 198 0 123 -13 197 -51 298 -19 51 -32 71 -53 82 -40 21 -54 19
-89 -11z"/>
<path d="M2298 2179 c9 -23 18 -37 20 -31 3 10 -24 72 -32 72 -3 0 3 -19 12
-41z"/>
<path d="M7697 2193 c-10 -18 -17 -38 -16 -45 0 -7 7 2 15 21 26 58 24 29 -7
-89 -31 -123 -37 -131 -147 -217 -30 -24 -34 -25 -51 -9 -25 23 -30 21 -76
-24 l-40 -40 65 -69 65 -68 43 40 c23 23 42 48 42 57 0 9 34 44 75 79 42 35
79 71 84 80 5 9 24 71 42 138 32 121 32 123 13 144 -14 16 -27 20 -51 16 -20
-4 -33 -1 -36 6 -2 7 -11 -2 -20 -20z m-204 -409 c-3 -8 3 -24 12 -34 10 -11
13 -20 8 -20 -6 0 -16 7 -23 15 -7 9 -19 14 -25 11 -8 -3 -12 4 -12 17 0 16 6
22 23 23 16 1 21 -2 17 -12z"/>
<path d="M912 2198 c-18 -18 -15 -49 20 -179 l33 -120 82 -67 c55 -45 82 -74
83 -88 0 -23 86 -101 92 -85 2 5 30 37 62 72 l59 62 -44 38 c-50 44 -56 45
-80 23 -17 -15 -22 -13 -76 34 -85 73 -88 78 -117 191 -14 57 -31 110 -37 117
-14 17 -61 18 -77 2z m354 -425 c1 -14 -3 -22 -10 -20 -6 3 -21 -5 -33 -16
-19 -17 -23 -18 -23 -5 0 9 6 21 14 28 8 6 13 17 10 24 -3 9 3 13 18 13 17 0
23 -6 24 -24z"/>
<path d="M1556 2194 c-21 -20 -20 -34 4 -124 50 -183 43 -169 130 -240 48 -39
80 -72 80 -84 0 -10 19 -35 41 -55 l41 -36 66 67 c65 68 65 68 46 89 -10 12
-32 30 -47 41 -26 19 -29 19 -46 4 -10 -9 -22 -16 -27 -16 -5 0 -40 29 -77 63
l-68 62 -28 107 c-16 60 -34 115 -41 123 -16 20 -54 19 -74 -1z m352 -419 c0
-14 -5 -22 -13 -19 -6 3 -18 -2 -25 -11 -19 -23 -33 -18 -16 6 8 12 12 27 10
34 -3 8 4 13 19 13 19 0 25 -6 25 -23z"/>
<path d="M2197 2192 c-10 -10 -17 -24 -17 -30 0 -24 70 -266 79 -271 39 -24
151 -129 151 -141 0 -9 19 -34 43 -57 l42 -40 64 69 64 69 -29 30 c-44 47 -62
54 -85 33 -22 -20 -31 -15 -117 63 -50 46 -53 51 -79 153 -14 58 -33 113 -41
123 -20 22 -55 22 -75 -1z m351 -417 c0 -14 -5 -22 -13 -19 -6 3 -18 -2 -25
-11 -7 -8 -17 -15 -23 -15 -5 0 -2 9 8 20 9 10 15 26 12 33 -4 10 2 15 18 15
17 0 23 -6 23 -23z"/>
<path d="M8368 2193 c-9 -10 -26 -63 -39 -118 l-23 -100 -70 -67 c-39 -37 -75
-68 -80 -68 -5 0 -17 7 -27 16 -21 19 -40 11 -83 -35 l-29 -30 64 -69 64 -69
43 40 c23 23 42 48 42 57 0 12 70 77 146 137 14 10 84 239 84 275 0 43 -63 64
-92 31z m-235 -410 c-3 -7 3 -23 12 -33 10 -11 13 -20 8 -20 -6 0 -16 7 -23
15 -7 9 -19 14 -25 11 -8 -3 -12 5 -12 19 0 17 5 23 22 23 16 0 22 -5 18 -15z"/>
<path d="M9011 2196 c-6 -7 -23 -58 -37 -112 -14 -54 -29 -105 -34 -114 -5 -9
-39 -43 -75 -74 -62 -55 -67 -57 -84 -42 -25 22 -30 21 -81 -23 l-44 -38 59
-62 c33 -34 61 -66 63 -72 6 -14 92 64 92 83 0 18 41 59 121 123 41 32 45 40
76 152 18 65 32 128 33 140 0 44 -62 72 -89 39z m-235 -411 c-2 -7 2 -22 10
-34 17 -24 3 -29 -16 -6 -7 9 -19 14 -25 11 -8 -3 -12 5 -12 19 0 17 5 23 24
23 15 0 22 -5 19 -13z"/>
<path d="M1434 2080 c-24 -31 -36 -64 -54 -151 l-24 -112 23 -18 c13 -11 27
-19 31 -19 4 0 13 48 19 108 7 59 18 135 25 170 8 34 13 62 12 62 -1 0 -15
-18 -32 -40z"/>
<path d="M8557 1988 c12 -73 22 -150 23 -170 0 -43 8 -46 41 -19 l23 18 -24
109 c-22 106 -29 124 -67 172 -18 22 -17 15 4 -110z"/>
<path d="M788 2077 c-18 -23 -33 -65 -49 -146 l-23 -113 23 -19 c13 -10 27
-19 31 -19 4 0 11 37 15 83 3 45 13 117 21 161 9 43 13 80 11 82 -2 3 -16 -10
-29 -29z"/>
<path d="M2076 2081 c-22 -23 -32 -51 -52 -140 -13 -61 -21 -118 -18 -126 6
-15 43 -40 48 -33 2 2 8 48 15 103 7 55 19 128 26 163 7 34 12 62 11 62 -1 0
-15 -13 -30 -29z"/>
<path d="M2718 2083 c-21 -22 -33 -54 -52 -140 -26 -117 -26 -137 5 -153 32
-17 36 -11 38 49 1 54 24 212 37 254 7 23 2 22 -28 -10z"/>
<path d="M7254 2095 c13 -50 36 -215 36 -262 0 -55 6 -61 41 -43 25 14 25 54
-2 170 -16 71 -28 100 -51 124 -23 24 -28 26 -24 11z"/>
<path d="M7894 2095 c12 -34 47 -278 42 -291 -7 -19 10 -27 33 -15 31 17 32
38 6 154 -22 95 -30 117 -57 142 -24 23 -29 26 -24 10z"/>
<path d="M9180 2098 c0 -7 6 -47 14 -88 8 -41 17 -110 21 -152 4 -43 11 -78
15 -78 4 0 18 8 31 19 l23 18 -23 109 c-15 73 -31 121 -48 147 -28 40 -33 44
-33 25z"/>
<path d="M820 1657 c-2 -65 -35 -179 -74 -260 -51 -104 -54 -117 -28 -140 24
-21 56 -22 77 -1 56 56 149 317 126 352 -12 17 -101 60 -101 49z"/>
<path d="M1455 1612 c-9 -76 -30 -141 -76 -234 -44 -88 -46 -99 -21 -121 34
-31 69 -22 99 26 60 94 127 307 104 328 -3 3 -27 18 -53 32 l-47 27 -6 -58z"/>
<path d="M2092 1589 c-8 -64 -21 -103 -63 -189 -51 -106 -52 -110 -35 -134 12
-18 25 -26 46 -26 25 0 36 8 60 46 43 69 90 187 101 258 9 53 8 62 -7 71 -9 6
-32 20 -51 33 -18 12 -35 22 -37 22 -2 0 -8 -36 -14 -81z"/>
<path d="M2736 1604 c-7 -70 -42 -173 -81 -241 -41 -69 -30 -123 25 -123 34 0
49 18 92 105 46 91 67 158 70 219 3 39 -1 50 -17 59 -11 6 -32 19 -47 29 -15
10 -29 18 -31 18 -2 0 -7 -30 -11 -66z"/>
<path d="M7234 1661 c-5 -5 -25 -18 -44 -29 -33 -18 -35 -22 -33 -67 2 -58 24
-129 70 -220 52 -105 74 -121 124 -95 29 16 23 52 -27 156 -34 70 -50 116 -58
174 -12 83 -17 95 -32 81z"/>
<path d="M7875 1660 c-4 -6 -23 -18 -43 -28 -37 -17 -37 -18 -34 -72 5 -76 74
-251 120 -302 23 -27 68 -23 88 7 16 25 16 28 -24 108 -54 108 -69 151 -77
231 -7 62 -16 79 -30 56z"/>
<path d="M8483 1638 l-52 -30 6 -46 c8 -65 56 -196 96 -262 27 -46 38 -56 64
-58 25 -3 35 2 49 23 16 25 16 28 -34 133 -37 78 -55 130 -64 189 l-13 81 -52
-30z"/>
<path d="M9135 1643 c-22 -12 -44 -24 -50 -26 -13 -5 -8 -71 11 -136 21 -74
99 -227 119 -235 29 -11 51 -7 68 12 24 26 22 37 -28 136 -40 81 -50 113 -72
231 l-8 41 -40 -23z"/>
<path d="M0 10 c0 -7 1673 -10 5000 -10 3327 0 5000 3 5000 10 0 7 -1673 10
-5000 10 -3327 0 -5000 -3 -5000 -10z"/>
</g>
</svg>
